<svg style="display:none">
	<symbol id="Logo" viewBox="0 0 400 42" fill="none" xmlns="http://www.w3.org/2000/svg"><path d="M0.945312 0.999999H9.8125L21.6875 29.9844H22.1563L34.0313 0.999999H42.8984V41H35.9453V13.5195H35.5742L24.5195 40.8828H19.3242L8.26953 13.4609H7.89844V41H0.945312V0.999999ZM58.0352 0.999999V41H50.7891V0.999999H58.0352ZM100.12 14.4961H92.8154C92.6071 13.2982 92.223 12.237 91.6631 11.3125C91.1032 10.375 90.4066 9.58073 89.5732 8.92969C88.7399 8.27864 87.7894 7.79036 86.7217 7.46484C85.667 7.1263 84.5277 6.95703 83.3037 6.95703C81.1292 6.95703 79.2021 7.50391 77.5225 8.59765C75.8428 9.67838 74.5277 11.2669 73.5771 13.3633C72.6266 15.4466 72.1514 17.9922 72.1514 21C72.1514 24.0599 72.6266 26.638 73.5771 28.7344C74.5407 30.8177 75.8558 32.3932 77.5225 33.4609C79.2021 34.5156 81.1227 35.043 83.2842 35.043C84.4821 35.043 85.6019 34.8867 86.6436 34.5742C87.6982 34.2487 88.6423 33.7734 89.4756 33.1484C90.3219 32.5234 91.0316 31.7552 91.6045 30.8437C92.1904 29.9323 92.5941 28.8906 92.8154 27.7187L100.12 27.7578C99.8467 29.6589 99.2542 31.4427 98.3428 33.1094C97.4443 34.776 96.266 36.2474 94.8076 37.5234C93.3493 38.7865 91.6436 39.776 89.6904 40.4922C87.7373 41.1953 85.5693 41.5469 83.1865 41.5469C79.6709 41.5469 76.5329 40.7331 73.7725 39.1055C71.012 37.4779 68.8376 35.1276 67.249 32.0547C65.6605 28.9818 64.8662 25.2969 64.8662 21C64.8662 16.6901 65.667 13.0052 67.2686 9.94531C68.8701 6.8724 71.0511 4.52213 73.8115 2.89453C76.5719 1.26693 79.6969 0.453124 83.1865 0.453124C85.4131 0.453124 87.4834 0.765623 89.3975 1.39062C91.3115 2.01562 93.0173 2.93359 94.5146 4.14453C96.012 5.34245 97.2425 6.8138 98.2061 8.55859C99.1826 10.2904 99.8206 12.2695 100.12 14.4961ZM106.756 41V0.999999H114.002V17.9336H132.537V0.999999H139.803V41H132.537V24.0078H114.002V41H106.756ZM152.82 41H145.086L159.168 0.999999H168.113L182.215 41H174.48L163.797 9.20312H163.484L152.82 41ZM153.074 25.3164H174.168V31.1367H153.074V25.3164ZM187.483 41V0.999999H213.499V7.07422H194.729V17.9336H212.151V24.0078H194.729V34.9258H213.655V41H187.483ZM220.892 41V0.999999H228.138V34.9258H245.755V41H220.892ZM265.687 41V0.999999H272.933V19.3789H273.421L289.026 0.999999H297.874L282.405 18.9492L298.011 41H289.3L277.366 23.8516L272.933 29.0859V41H265.687ZM336.502 21C336.502 25.3099 335.695 29.0013 334.08 32.0742C332.479 35.1341 330.291 37.4779 327.518 39.1055C324.757 40.7331 321.626 41.5469 318.123 41.5469C314.62 41.5469 311.482 40.7331 308.709 39.1055C305.949 37.4648 303.761 35.1146 302.146 32.0547C300.545 28.9818 299.744 25.2969 299.744 21C299.744 16.6901 300.545 13.0052 302.146 9.94531C303.761 6.8724 305.949 4.52213 308.709 2.89453C311.482 1.26693 314.62 0.453124 318.123 0.453124C321.626 0.453124 324.757 1.26693 327.518 2.89453C330.291 4.52213 332.479 6.8724 334.08 9.94531C335.695 13.0052 336.502 16.6901 336.502 21ZM329.217 21C329.217 17.9661 328.742 15.4076 327.791 13.3242C326.854 11.2279 325.551 9.64583 323.885 8.57813C322.218 7.4974 320.298 6.95703 318.123 6.95703C315.949 6.95703 314.028 7.4974 312.361 8.57813C310.695 9.64583 309.386 11.2279 308.436 13.3242C307.498 15.4076 307.029 17.9661 307.029 21C307.029 24.0339 307.498 26.599 308.436 28.6953C309.386 30.7786 310.695 32.3607 312.361 33.4414C314.028 34.5091 315.949 35.043 318.123 35.043C320.298 35.043 322.218 34.5091 323.885 33.4414C325.551 32.3607 326.854 30.7786 327.791 28.6953C328.742 26.599 329.217 24.0339 329.217 21ZM343.353 41V0.999999H358.353C361.425 0.999999 364.004 1.53385 366.087 2.60156C368.183 3.66927 369.765 5.16666 370.833 7.09375C371.914 9.00781 372.454 11.2409 372.454 13.793C372.454 16.3581 371.907 18.5846 370.813 20.4727C369.733 22.3477 368.138 23.7995 366.028 24.8281C363.919 25.8437 361.328 26.3516 358.255 26.3516H347.571V20.3359H357.278C359.075 20.3359 360.547 20.0885 361.692 19.5937C362.838 19.0859 363.685 18.3503 364.231 17.3867C364.791 16.4102 365.071 15.2122 365.071 13.793C365.071 12.3737 364.791 11.1628 364.231 10.1602C363.672 9.14453 362.819 8.3763 361.673 7.85547C360.527 7.32161 359.049 7.05469 357.239 7.05469H350.599V41H343.353ZM364.017 22.875L373.919 41H365.833L356.106 22.875H364.017ZM400.862 11.9961C400.68 10.2904 399.912 8.96224 398.558 8.01172C397.216 7.0612 395.472 6.58594 393.323 6.58594C391.813 6.58594 390.517 6.8138 389.437 7.26953C388.356 7.72526 387.529 8.34375 386.956 9.125C386.383 9.90625 386.09 10.7982 386.077 11.8008C386.077 12.6341 386.266 13.3568 386.644 13.9687C387.034 14.5807 387.562 15.1016 388.226 15.5312C388.89 15.9479 389.625 16.2995 390.433 16.5859C391.24 16.8724 392.054 17.1133 392.874 17.3086L396.624 18.2461C398.134 18.5977 399.586 19.0729 400.979 19.6719C402.386 20.2708 403.642 21.026 404.749 21.9375C405.869 22.849 406.754 23.9492 407.405 25.2383C408.056 26.5273 408.382 28.0378 408.382 29.7695C408.382 32.1133 407.783 34.1771 406.585 35.9609C405.387 37.7318 403.655 39.1185 401.39 40.1211C399.137 41.1107 396.409 41.6055 393.206 41.6055C390.094 41.6055 387.392 41.1237 385.101 40.1602C382.822 39.1966 381.038 37.7904 379.749 35.9414C378.473 34.0924 377.783 31.8398 377.679 29.1836H384.808C384.912 30.5768 385.341 31.7357 386.097 32.6602C386.852 33.5846 387.835 34.2747 389.046 34.7305C390.27 35.1862 391.637 35.4141 393.147 35.4141C394.723 35.4141 396.103 35.1797 397.288 34.7109C398.486 34.2292 399.424 33.5651 400.101 32.7187C400.778 31.8594 401.123 30.8568 401.136 29.7109C401.123 28.6693 400.817 27.8099 400.218 27.1328C399.619 26.4427 398.779 25.8698 397.698 25.4141C396.631 24.9453 395.381 24.5286 393.948 24.1641L389.397 22.9922C386.103 22.1458 383.499 20.8633 381.585 19.1445C379.684 17.4128 378.733 15.1146 378.733 12.25C378.733 9.89323 379.371 7.82943 380.647 6.05859C381.937 4.28776 383.688 2.91406 385.901 1.9375C388.115 0.947915 390.621 0.453124 393.421 0.453124C396.259 0.453124 398.746 0.947915 400.882 1.9375C403.03 2.91406 404.716 4.27474 405.94 6.01953C407.164 7.7513 407.796 9.74349 407.835 11.9961H400.862Z" fill="black"/></symbol>
	<symbol id="ChevronLeft" xmlns="http://www.w3.org/2000/svg" fill="none" viewBox="0 0 24 24" stroke="currentColor"><path stroke-linecap="round" stroke-linejoin="round" d="M15.75 19.5L8.25 12l7.5-7.5" /></symbol>
	<symbol id="ChevronRight" xmlns="http://www.w3.org/2000/svg" fill="none" viewBox="0 0 24 24" stroke="currentColor"><path stroke-linecap="round" stroke-linejoin="round" d="M8.25 4.5l7.5 7.5-7.5 7.5" /></symbol>
	<symbol id="ChevronUp" xmlns="http://www.w3.org/2000/svg" fill="none" viewBox="0 0 24 24" stroke="currentColor"><path stroke-linecap="round" stroke-linejoin="round" d="M4.5 15.75l7.5-7.5 7.5 7.5" /></symbol>	
	<symbol id="ChevronDown" xmlns="http://www.w3.org/2000/svg" fill="none" viewBox="0 0 24 24" stroke="currentColor"><path stroke-linecap="round" stroke-linejoin="round" d="M19.5 8.25l-7.5 7.5-7.5-7.5" /></symbol>
	<symbol id="QuestionMarkCircle" xmlns="http://www.w3.org/2000/svg" fill="none" viewBox="0 0 24 24" stroke="currentColor"><path stroke-linecap="round" stroke-linejoin="round" d="M9.879 7.519c1.171-1.025 3.071-1.025 4.242 0 1.172 1.025 1.172 2.687 0 3.712-.203.179-.43.326-.67.442-.745.361-1.45.999-1.45 1.827v.75M21 12a9 9 0 11-18 0 9 9 0 0118 0zm-9 5.25h.008v.008H12v-.008z" /></symbol>
	<symbol id="User" width="20" height="20" viewBox="0 0 20 20" fill="none" xmlns="http://www.w3.org/2000/svg"><path fill-rule="evenodd" clip-rule="evenodd" d="M10.0003 3.33366C8.61961 3.33366 7.50033 4.45295 7.50033 5.83366C7.50033 7.21437 8.61961 8.33366 10.0003 8.33366C11.381 8.33366 12.5003 7.21437 12.5003 5.83366C12.5003 4.45295 11.381 3.33366 10.0003 3.33366ZM5.83366 5.83366C5.83366 3.53247 7.69914 1.66699 10.0003 1.66699C12.3015 1.66699 14.167 3.53247 14.167 5.83366C14.167 8.13484 12.3015 10.0003 10.0003 10.0003C7.69914 10.0003 5.83366 8.13484 5.83366 5.83366ZM8.33366 13.3337C7.67062 13.3337 7.03473 13.597 6.56589 14.0659C6.09705 14.5347 5.83366 15.1706 5.83366 15.8337V17.5003C5.83366 17.9606 5.46056 18.3337 5.00033 18.3337C4.54009 18.3337 4.16699 17.9606 4.16699 17.5003V15.8337C4.16699 14.7286 4.60598 13.6688 5.38738 12.8874C6.16878 12.106 7.22859 11.667 8.33366 11.667H11.667C12.7721 11.667 13.8319 12.106 14.6133 12.8874C15.3947 13.6688 15.8337 14.7286 15.8337 15.8337V17.5003C15.8337 17.9606 15.4606 18.3337 15.0003 18.3337C14.5401 18.3337 14.167 17.9606 14.167 17.5003V15.8337C14.167 15.1706 13.9036 14.5347 13.4348 14.0659C12.9659 13.597 12.33 13.3337 11.667 13.3337H8.33366Z" fill="currentColor"/></symbol>
	<symbol id="ShoppingCart" width="16" height="16" viewBox="0 0 20 25" fill="none" xmlns="http://www.w3.org/2000/svg"><path d="M6 5.48142C7 3.48142 10 -3.51562 14 5.48153" stroke="black"/>
<rect x="0.5" y="5.5" width="19" height="19" stroke="black"/>
<rect x="3.5" y="8.5" width="13" height="13" fill="#CEBEA5" stroke="#CEBEA5"/></symbol>
	<symbol id="Bars3" xmlns="http://www.w3.org/2000/svg" viewBox="0 0 20 20" stroke="currentColor" fill="none"><path fill-rule="evenodd" clip-rule="evenodd" d="M2.5 5.00033C2.5 4.54009 2.8731 4.16699 3.33333 4.16699H16.6667C17.1269 4.16699 17.5 4.54009 17.5 5.00033C17.5 5.46056 17.1269 5.83366 16.6667 5.83366H3.33333C2.8731 5.83366 2.5 5.46056 2.5 5.00033ZM2.5 10.0003C2.5 9.54009 2.8731 9.16699 3.33333 9.16699H16.6667C17.1269 9.16699 17.5 9.54009 17.5 10.0003C17.5 10.4606 17.1269 10.8337 16.6667 10.8337H3.33333C2.8731 10.8337 2.5 10.4606 2.5 10.0003ZM2.5 15.0003C2.5 14.5401 2.8731 14.167 3.33333 14.167H16.6667C17.1269 14.167 17.5 14.5401 17.5 15.0003C17.5 15.4606 17.1269 15.8337 16.6667 15.8337H3.33333C2.8731 15.8337 2.5 15.4606 2.5 15.0003Z" fill="currentColor"/></symbol>
	<symbol id="Heart" xmlns="http://www.w3.org/2000/svg" fill="none" viewBox="0 0 24 24" stroke="currentColor"><path stroke-linecap="round" stroke-linejoin="round" d="M21 8.25c0-2.485-2.099-4.5-4.688-4.5-1.935 0-3.597 1.126-4.312 2.733-.715-1.607-2.377-2.733-4.313-2.733C5.1 3.75 3 5.765 3 8.25c0 7.22 9 12 9 12s9-4.78 9-12z" /></symbol>
	<symbol id="MagnifyingGlass" width="13" height="13" viewBox="0 0 20 20" fill="none" xmlns="http://www.w3.org/2000/svg"><path fill-rule="evenodd" clip-rule="evenodd" d="M8.33366 3.33366C5.57223 3.33366 3.33366 5.57223 3.33366 8.33366C3.33366 11.0951 5.57223 13.3337 8.33366 13.3337C11.0951 13.3337 13.3337 11.0951 13.3337 8.33366C13.3337 5.57223 11.0951 3.33366 8.33366 3.33366ZM1.66699 8.33366C1.66699 4.65176 4.65176 1.66699 8.33366 1.66699C12.0156 1.66699 15.0003 4.65176 15.0003 8.33366C15.0003 9.87425 14.4778 11.2928 13.6002 12.4217L18.0896 16.9111C18.415 17.2365 18.415 17.7641 18.0896 18.0896C17.7641 18.415 17.2365 18.415 16.9111 18.0896L12.4217 13.6002C11.2928 14.4778 9.87425 15.0003 8.33366 15.0003C4.65176 15.0003 1.66699 12.0156 1.66699 8.33366Z" fill="currentColor"/></symbol>
	<symbol id="XMark" xmlns="http://www.w3.org/2000/svg" fill="none" viewBox="0 0 24 24" stroke="currentColor"><path stroke-linecap="round" stroke-linejoin="round" d="M6 18L18 6M6 6l12 12" /></symbol>
	<symbol id="Plus" xmlns="http://www.w3.org/2000/svg" fill="none" viewBox="0 0 24 24" stroke="currentColor"><path stroke-linecap="round" stroke-linejoin="round" d="M12 4.5v15m7.5-7.5h-15" /></symbol>
	<symbol id="Minus" xmlns="http://www.w3.org/2000/svg" fill="none" viewBox="0 0 24 24" stroke="currentColor"><path stroke-linecap="round" stroke-linejoin="round" d="M19.5 12h-15" /></symbol>
	<symbol id="MapPin" xmlns="http://www.w3.org/2000/svg" fill="none" viewBox="0 0 24 24" stroke="currentColor"><path stroke-linecap="round" stroke-linejoin="round" d="M15 10.5a3 3 0 11-6 0 3 3 0 016 0z" /><path stroke-linecap="round" stroke-linejoin="round" d="M19.5 10.5c0 7.142-7.5 11.25-7.5 11.25S4.5 17.642 4.5 10.5a7.5 7.5 0 1115 0z" /></symbol>	
	<symbol id="Phone" xmlns="http://www.w3.org/2000/svg" fill="none" viewBox="0 0 24 24" stroke="currentColor"><path stroke-linecap="round" stroke-linejoin="round" d="M2.25 6.75c0 8.284 6.716 15 15 15h2.25a2.25 2.25 0 002.25-2.25v-1.372c0-.516-.351-.966-.852-1.091l-4.423-1.106c-.44-.11-.902.055-1.173.417l-.97 1.293c-.282.376-.769.542-1.21.38a12.035 12.035 0 01-7.143-7.143c-.162-.441.004-.928.38-1.21l1.293-.97c.363-.271.527-.734.417-1.173L6.963 3.102a1.125 1.125 0 00-1.091-.852H4.5A2.25 2.25 0 002.25 4.5v2.25z" /></symbol>
	<symbol id="Elo" xmlns="http://www.w3.org/2000/svg" viewBox="0 0 40 14" stroke="currentColor" fill="none"><path d="M6.57655 3.09309C6.98496 2.95495 7.4234 2.88288 7.87985 2.88288C9.87385 2.88288 11.5375 4.3003 11.9159 6.18018L14.7387 5.6036C14.0901 2.40841 11.2672 0 7.87985 0C7.10508 0 6.36033 0.126126 5.66364 0.36036L6.57655 3.09309Z" fill="currentColor"/><path d="M3.24323 12.2463L5.15314 10.0841C4.30029 9.32733 3.76576 8.22823 3.76576 6.997C3.76576 5.77178 4.30029 4.66667 5.15314 3.91592L3.24323 1.75977C1.79579 3.04505 0.882874 4.91292 0.882874 7.00301C0.882874 9.08709 1.79579 10.961 3.24323 12.2463Z" fill="currentColor"/><path d="M11.9159 7.82617C11.5315 9.70605 9.87387 11.1175 7.87988 11.1175C7.42342 11.1175 6.98498 11.0454 6.57057 10.9073L5.65765 13.64C6.35435 13.8742 7.1051 14.0003 7.87988 14.0003C11.2673 14.0003 14.0901 11.5979 14.7387 8.40275L11.9159 7.82617Z" fill="currentColor"/><path d="M24.1441 9.75962C23.6757 10.2161 23.045 10.4924 22.3484 10.4803C21.8679 10.4743 21.4234 10.3302 21.0511 10.0899L20.1141 11.5794C20.7568 11.9818 21.5075 12.2221 22.3243 12.2341C23.5075 12.2521 24.5886 11.7836 25.3754 11.0209L24.1441 9.75962ZM22.4505 3.68755C20.0961 3.65151 18.1502 5.5374 18.1141 7.89175C18.1021 8.77463 18.3544 9.60346 18.8048 10.2881L26.5405 6.97884C26.1081 5.12298 24.4505 3.72358 22.4505 3.68755ZM19.8859 8.22809C19.8739 8.13199 19.8679 8.02989 19.8679 7.92779C19.8919 6.5404 21.033 5.42929 22.4204 5.45331C23.1772 5.46532 23.8499 5.80767 24.3003 6.34821L19.8859 8.22809ZM28.973 1.76562V10.0119L30.4024 10.6065L29.7237 12.2341L28.3063 11.6455C27.988 11.5074 27.7718 11.2972 27.6096 11.0569C27.4535 10.8167 27.3333 10.4803 27.3333 10.0359V1.76562H28.973Z" fill="currentColor"/><path d="M34.1321 5.57925C34.3844 5.49516 34.6487 5.45312 34.9309 5.45312C36.1502 5.45312 37.1592 6.31798 37.3934 7.46513L39.1171 7.11078C38.7207 5.15882 36.997 3.69336 34.9309 3.69336C34.4565 3.69336 34 3.77144 33.5796 3.90958L34.1321 5.57925ZM32.0961 11.1588L33.2613 9.84351C32.7387 9.38105 32.4144 8.70837 32.4144 7.95762C32.4144 7.20687 32.7448 6.5342 33.2613 6.07774L32.0961 4.76243C31.2132 5.54321 30.6547 6.69036 30.6547 7.96363C30.6547 9.2369 31.2132 10.378 32.0961 11.1588ZM37.3934 8.46813C37.1592 9.61528 36.1442 10.4801 34.9309 10.4801C34.6547 10.4801 34.3844 10.4321 34.1321 10.348L33.5736 12.0177C34 12.1618 34.4565 12.2399 34.9309 12.2399C36.997 12.2399 38.7207 10.7744 39.1171 8.82249L37.3934 8.46813Z" fill="currentColor"/></symbol>
	<symbol id="Mastercard" xmlns="http://www.w3.org/2000/svg" viewBox="0 0 26 20" fill="none" stroke="currentColor"><g clip-path="url(#clip0_81_156)"><path d="M4.77191 19.9552V18.6263C4.77191 18.1167 4.46174 17.7846 3.95265 17.7846C3.68527 17.7846 3.39918 17.8734 3.19971 18.159C3.04463 17.9151 2.82538 17.7846 2.49116 17.7846C2.36689 17.7793 2.24323 17.8048 2.13124 17.8589C2.01926 17.913 1.92244 17.9941 1.84944 18.0948V17.8274H1.42859V19.9536H1.84944V18.737C1.84944 18.3627 2.07083 18.1836 2.381 18.1836C2.69116 18.1836 2.86816 18.383 2.86816 18.737V19.9552H3.28902V18.737C3.28902 18.3627 3.51041 18.1836 3.82057 18.1836C4.13073 18.1836 4.30773 18.383 4.30773 18.737V19.9552H4.77191ZM11.6821 17.8509H10.9067V17.2092H10.4869V17.8509H10.0441V18.2253H10.4869V19.2242C10.4869 19.7114 10.6639 19.9996 11.1954 19.9996C11.3968 19.9954 11.5941 19.9422 11.7703 19.8445L11.6371 19.4702C11.5177 19.5449 11.3791 19.5833 11.2382 19.5809C11.0168 19.5809 10.9061 19.4477 10.9061 19.2263V18.2082H11.6815V17.8536L11.6821 17.8509ZM15.6243 17.7846C15.5097 17.7821 15.3964 17.8093 15.2954 17.8637C15.1945 17.918 15.1093 17.9977 15.0484 18.0948V17.8274H14.6275V19.9536H15.0484V18.7595C15.0484 18.405 15.2254 18.1836 15.5136 18.1836C15.6109 18.1875 15.7074 18.2024 15.8013 18.2279L15.9345 17.829C15.8329 17.8034 15.729 17.7885 15.6243 17.7846ZM9.66656 18.006C9.44517 17.8509 9.13501 17.7846 8.80292 17.7846C8.27137 17.7846 7.93928 18.0285 7.93928 18.4493C7.93928 18.8039 8.18314 19.0028 8.64784 19.0697L8.86923 19.0916C9.11308 19.136 9.26816 19.2247 9.26816 19.3354C9.26816 19.4905 9.09116 19.6028 8.75854 19.6028C8.50456 19.608 8.2558 19.5303 8.04998 19.3814L7.82859 19.7135C8.13875 19.9349 8.51522 19.9809 8.73768 19.9809C9.358 19.9809 9.69009 19.6932 9.69009 19.2943C9.69009 18.9199 9.42271 18.7408 8.95907 18.6739L8.73768 18.652C8.53822 18.6301 8.36335 18.5632 8.36335 18.4306C8.36335 18.2755 8.54036 18.1632 8.78421 18.1632C9.05159 18.1632 9.31576 18.2739 9.44891 18.3402L9.66656 18.006ZM16.0896 18.8921C16.0896 19.5338 16.5104 19.9996 17.197 19.9996C17.5072 19.9996 17.7286 19.9333 17.95 19.7558L17.7286 19.4237C17.5718 19.5506 17.3768 19.6209 17.1751 19.6231C16.8008 19.6231 16.5104 19.3354 16.5104 18.9146C16.5104 18.4937 16.797 18.2082 17.1751 18.2082C17.3768 18.2104 17.5718 18.2807 17.7286 18.4076L17.95 18.0755C17.7286 17.8985 17.5072 17.8317 17.197 17.8317C16.5323 17.7873 16.0896 18.2525 16.0896 18.8948V18.8921ZM13.1216 17.7846C12.5013 17.7846 12.0805 18.2274 12.0805 18.8921C12.0805 19.5568 12.5232 19.9996 13.1655 19.9996C13.4779 20.0062 13.7831 19.9046 14.0291 19.7119L13.8077 19.4017C13.6298 19.5396 13.4125 19.6172 13.1874 19.6231C12.8997 19.6231 12.5896 19.4461 12.5457 19.0697H14.1184V18.8927C14.1184 18.2279 13.7195 17.7852 13.1216 17.7852V17.7846ZM13.0997 18.1836C13.4099 18.1836 13.6313 18.383 13.6532 18.7151H12.5019C12.5682 18.405 12.7692 18.1836 13.0997 18.1836ZM7.36335 18.8921V17.829H6.94249V18.0964C6.78741 17.8969 6.56816 17.7862 6.25586 17.7862C5.658 17.7862 5.21469 18.2515 5.21469 18.8937C5.21469 19.536 5.65747 20.0012 6.25586 20.0012C6.56602 20.0012 6.78741 19.8905 6.94249 19.691V19.9584H7.36335V18.8921ZM5.658 18.8921C5.658 18.4932 5.90185 18.1836 6.32271 18.1836C6.72164 18.1836 6.96442 18.4937 6.96442 18.8921C6.96442 19.313 6.69704 19.6007 6.32271 19.6007C5.90185 19.6226 5.658 19.2905 5.658 18.8921ZM22.0259 17.7846C21.9113 17.7821 21.798 17.8093 21.697 17.8637C21.5961 17.918 21.5109 17.9977 21.45 18.0948V17.8274H21.0291V19.9536H21.4495V18.7595C21.4495 18.405 21.6265 18.1836 21.9147 18.1836C22.012 18.1875 22.1085 18.2024 22.2024 18.2279L22.3355 17.829C22.234 17.8034 22.13 17.7885 22.0254 17.7846H22.0259ZM20.3869 18.8921V17.829H19.966V18.0964C19.8109 17.8969 19.5917 17.7862 19.2794 17.7862C18.6815 17.7862 18.2382 18.2515 18.2382 18.8937C18.2382 19.536 18.681 20.0012 19.2794 20.0012C19.5896 20.0012 19.8109 19.8905 19.966 19.691V19.9584H20.3869V18.8921ZM18.6815 18.8921C18.6815 18.4932 18.9254 18.1836 19.3462 18.1836C19.7452 18.1836 19.988 18.4937 19.988 18.8921C19.988 19.313 19.7206 19.6007 19.3462 19.6007C18.9254 19.6226 18.6815 19.2905 18.6815 18.8921ZM24.6618 18.8921V16.9873H24.2409V18.0948C24.0858 17.8953 23.8666 17.7846 23.5543 17.7846C22.9564 17.7846 22.5131 18.2499 22.5131 18.8921C22.5131 19.5344 22.9559 19.9996 23.5543 19.9996C23.8644 19.9996 24.0858 19.8889 24.2409 19.6894V19.9568H24.6618V18.8921ZM22.9564 18.8921C22.9564 18.4932 23.2003 18.1836 23.6211 18.1836C24.02 18.1836 24.2628 18.4937 24.2628 18.8921C24.2628 19.313 23.9954 19.6007 23.6211 19.6007C23.1997 19.6231 22.9559 19.291 22.9559 18.8921H22.9564Z" fill="currentColor"/><path d="M9.95478 7.97327C9.95505 6.76731 10.2281 5.57704 10.7536 4.49159C11.279 3.40613 12.0433 2.45361 12.989 1.70535C11.8128 0.780601 10.4002 0.205442 8.9126 0.045623C7.42499 -0.114196 5.92242 0.147775 4.57667 0.801588C3.23091 1.4554 2.09627 2.47468 1.30244 3.74289C0.508619 5.01111 0.0876465 6.47709 0.0876465 7.97327C0.0876465 9.46944 0.508619 10.9354 1.30244 12.2036C2.09627 13.4719 3.23091 14.4911 4.57667 15.1449C5.92242 15.7988 7.42499 16.0607 8.9126 15.9009C10.4002 15.7411 11.8128 15.1659 12.989 14.2412C12.0433 13.4929 11.279 12.5404 10.7536 11.4549C10.2281 10.3695 9.95505 9.17922 9.95478 7.97327Z" fill="currentColor"/><path d="M25.9019 7.97297C25.9029 9.46805 25.4832 10.9333 24.6907 12.201C23.8982 13.4688 22.7648 14.4879 21.4203 15.1418C20.0758 15.7957 18.5744 16.0579 17.0879 15.8986C15.6013 15.7393 14.1896 15.1648 13.0142 14.2409C13.9601 13.4928 14.7245 12.5403 15.25 11.4548C15.7755 10.3693 16.0485 9.17898 16.0485 7.97297C16.0485 6.76696 15.7755 5.5766 15.25 4.4911C14.7245 3.4056 13.9601 2.45312 13.0142 1.70506C14.1896 0.781104 15.6013 0.20662 17.0879 0.0473072C18.5744 -0.112005 20.0758 0.150287 21.4203 0.804186C22.7648 1.45808 23.8982 2.47719 24.6907 3.74493C25.4832 5.01268 25.9029 6.47789 25.9019 7.97297Z" fill="currentColor" fill-opacity="0.4"/><path fill-rule="evenodd" clip-rule="evenodd" d="M13.0141 1.70508H12.989C12.0432 2.45333 11.279 3.40585 10.7536 4.49131C10.2281 5.57677 9.95504 6.76704 9.95477 7.97299C9.95504 9.17894 10.2281 10.3692 10.7536 11.4547C11.279 12.5401 12.0433 13.4926 12.989 14.2409H13.0141C13.0141 14.2409 13.0141 14.2409 13.0141 14.2409C13.9601 13.4928 14.7245 12.5404 15.25 11.4549C15.7755 10.3694 16.0484 9.17899 16.0484 7.97299C16.0484 6.76698 15.7755 5.57661 15.25 4.49111C14.7245 3.40561 13.9601 2.45314 13.0141 1.70508Z" fill="currentColor" fill-opacity="0.6"/></g><defs><clipPath id="clip0_81_156"><rect width="25.8027" height="20" fill="white" transform="translate(0.0986328)"/></clipPath></defs></symbol>
	<symbol id="Visa" xmlns="http://www.w3.org/2000/svg" viewBox="0 0 40 12" fill="none" stroke="currentColor"><path d="M14.2514 11.8628L16.2325 0.237305H19.4012L17.4187 11.8628H14.2514Z" fill="currentColor"/><path d="M28.8667 0.488266C28.2389 0.252744 27.2552 0 26.0267 0C22.8956 0 20.6902 1.57674 20.6714 3.83653C20.6537 5.50698 22.2459 6.43886 23.4479 6.99494C24.6813 7.56486 25.0959 7.92824 25.09 8.437C25.0821 9.21631 24.105 9.57221 23.1942 9.57221C21.926 9.57221 21.2522 9.39601 20.2115 8.96208L19.8031 8.77728L19.3585 11.3797C20.0986 11.7043 21.4671 11.9854 22.8882 12C26.2191 12 28.3815 10.4413 28.4061 8.02807C28.4179 6.70556 27.5737 5.69921 25.7455 4.86948C24.638 4.33169 23.9597 3.97282 23.9669 3.42826C23.9669 2.94504 24.541 2.42833 25.7816 2.42833C26.8177 2.41223 27.5684 2.6382 28.1533 2.87372L28.4372 3.00787L28.8667 0.488266Z" fill="currentColor"/><path d="M37.0208 0.237305H34.5723C33.8138 0.237305 33.2461 0.444322 32.913 1.20137L28.2071 11.8552H31.5345C31.5345 11.8552 32.0785 10.4228 32.2015 10.1082C32.5651 10.1082 35.7976 10.1132 36.2597 10.1132C36.3545 10.5202 36.6452 11.8552 36.6452 11.8552H39.5855L37.0208 0.237305ZM33.136 7.74409C33.3981 7.07428 34.3985 4.49428 34.3985 4.49428C34.3798 4.52522 34.6587 3.82121 34.8186 3.38473L35.0328 4.38703C35.0328 4.38703 35.6395 7.16205 35.7663 7.74391H33.136V7.74409Z" fill="currentColor"/><path d="M0.45503 0.237305L0.414551 0.479138C1.66716 0.782359 2.78593 1.22123 3.76542 1.76717L6.57706 11.8441L9.92966 11.8404L14.9183 0.237305H11.5615L8.45929 8.16502L8.12885 6.55384C8.11337 6.50406 8.09654 6.4542 8.07932 6.40422L7.00087 1.21879C6.80912 0.482646 6.25282 0.262959 5.56461 0.237305H0.45503Z" fill="currentColor"/></symbol>		
	<symbol id="Pix" viewBox="0 0 512 512" xmlns="http://www.w3.org/2000/svg" fill="none" stroke="currentColor"> <defs/> <g fill="currentColor" fill-rule="evenodd"> <path d="M393.072 391.897c-20.082 0-38.969-7.81-53.176-22.02l-77.069-77.067c-5.375-5.375-14.773-5.395-20.17 0l-76.784 76.786c-14.209 14.207-33.095 22.019-53.179 22.019h-9.247l97.521 97.52c30.375 30.375 79.614 30.375 109.988 0l97.239-97.238h-15.123zm-105.049 74.327c-8.55 8.53-19.93 13.25-32.05 13.25h-.02c-12.12 0-23.522-4.721-32.05-13.25l-56.855-56.855c7.875-4.613 15.165-10.248 21.758-16.84l63.948-63.948 64.23 64.23c7.637 7.66 16.188 14.013 25.478 18.952l-54.439 54.46zM310.958 22.78c-30.374-30.374-79.613-30.374-109.988 0l-97.52 97.52h9.247c20.082 0 38.97 7.834 53.178 22.02l76.784 76.785c5.57 5.592 14.622 5.57 20.17 0l77.069-77.068c14.207-14.187 33.094-22.02 53.176-22.02h15.123l-97.239-97.237zm6.028 96.346l-64.23 64.23-63.97-63.97c-6.593-6.592-13.86-12.206-21.736-16.818l56.853-56.877c17.69-17.645 46.476-17.668 64.121 0l54.44 54.461c-9.292 4.961-17.842 11.315-25.479 18.974h.001z"/> <path d="M489.149 200.97l-58.379-58.377h-37.706c-13.838 0-27.394 5.635-37.185 15.426l-77.068 77.069c-7.202 7.18-16.623 10.77-26.067 10.77-9.443 0-18.885-3.59-26.066-10.77l-76.785-76.785c-9.792-9.814-23.346-15.427-37.207-15.427h-31.81L22.78 200.97c-30.374 30.375-30.374 79.614 0 109.988l58.095 58.074 31.81.021c13.86 0 27.416-5.635 37.208-15.426l76.784-76.764c13.925-13.947 38.208-13.924 52.133-.02l77.068 77.066c9.791 9.792 23.346 15.405 37.185 15.405h37.706l58.379-58.356c30.374-30.374 30.374-79.613 0-109.988zm-362.19 129.724c-3.763 3.786-8.942 5.917-14.273 5.917H94.302l-48.59-48.564c-17.689-17.69-17.689-46.476 0-64.143L94.3 175.296h18.385c5.331 0 10.51 2.154 14.295 5.918l74.74 74.74-74.761 74.74zm339.257-42.647l-48.848 48.87h-24.305c-5.309 0-10.508-2.155-14.251-5.92l-75.023-75.043 75.023-75.023c3.743-3.764 8.942-5.918 14.252-5.918h24.304l48.847 48.891c8.573 8.551 13.273 19.93 13.273 32.05 0 12.141-4.7 23.52-13.273 32.093z"/> </g> </symbol>
	<symbol id="Facebook" xmlns="http://www.w3.org/2000/svg" viewBox="0 0 24 24" stroke="currentColor" fill="none" stroke-linecap="round" stroke-linejoin="round"><path stroke="none" d="M0 0h24v24H0z" fill="none" /><path d="M7 10v4h3v7h4v-7h3l1 -4h-4v-2a1 1 0 0 1 1 -1h3v-4h-3a5 5 0 0 0 -5 5v2h-3" /></symbol>
	<symbol id="Instagram" xmlns="http://www.w3.org/2000/svg" viewBox="0 0 24 24" stroke="currentColor" fill="none" stroke-linecap="round" stroke-linejoin="round"><path stroke="none" d="M0 0h24v24H0z" fill="none" /><rect x="4" y="4" width="16" height="16" rx="4" /><circle cx="12" cy="12" r="3" /><line x1="16.5" y1="7.5" x2="16.5" y2="7.501" /></symbol>
	<symbol id="Tiktok" xmlns="http://www.w3.org/2000/svg" viewBox="0 0 24 24" stroke="currentColor" fill="none" stroke-linecap="round" stroke-linejoin="round"><path stroke="none" d="M0 0h24v24H0z" fill="none" /><path d="M9 12a4 4 0 1 0 4 4v-12a5 5 0 0 0 5 5" /></symbol>
	<symbol id="Truck" xmlns="http://www.w3.org/2000/svg"  viewBox="0 0 36 28" stroke="currentColor" fill="none"><path d="M14 22.333C14 24.174 12.5077 25.6663 10.6667 25.6663C8.82576 25.6663 7.33337 24.174 7.33337 22.333M14 22.333C14 20.4921 12.5077 18.9997 10.6667 18.9997C8.82576 18.9997 7.33337 20.4921 7.33337 22.333M14 22.333H24M7.33337 22.333H4.00004V15.6663M30.6667 22.333C30.6667 24.174 29.1743 25.6663 27.3334 25.6663C25.4924 25.6663 24 24.174 24 22.333M30.6667 22.333C30.6667 20.4921 29.1743 18.9997 27.3334 18.9997C25.4924 18.9997 24 20.4921 24 22.333M30.6667 22.333H34V12.333M2.33337 2.33301H20.6667V22.333M34 12.333H20.6667M34 12.333L29 3.99967H20.6667M4.00004 8.99967H10.6667" stroke-linecap="round" stroke-linejoin="round"/></symbol>
	<symbol id="Discount" xmlns="http://www.w3.org/2000/svg" viewBox="0 0 34 34" stroke="currentColor" fill="none"><path d="M12 21.9998L22 11.9998M13.6667 12.8332C13.6667 13.2934 13.2936 13.6665 12.8333 13.6665C12.3731 13.6665 12 13.2934 12 12.8332C12 12.3729 12.3731 11.9998 12.8333 11.9998C13.2936 11.9998 13.6667 12.3729 13.6667 12.8332ZM22 21.1665C22 21.6267 21.6269 21.9998 21.1667 21.9998C20.7064 21.9998 20.3333 21.6267 20.3333 21.1665C20.3333 20.7063 20.7064 20.3332 21.1667 20.3332C21.6269 20.3332 22 20.7063 22 21.1665ZM5.33334 8.99979C5.33334 8.02733 5.71965 7.0947 6.40728 6.40707C7.09491 5.71943 8.02755 5.33313 9.00001 5.33313H10.6667C11.6348 5.33257 12.5635 4.94913 13.25 4.26646L14.4167 3.09979C14.7574 2.75713 15.1625 2.4852 15.6087 2.29964C16.0549 2.11408 16.5334 2.01855 17.0167 2.01855C17.4999 2.01855 17.9784 2.11408 18.4246 2.29964C18.8708 2.4852 19.2759 2.75713 19.6167 3.09979L20.7833 4.26646C21.4699 4.94913 22.3985 5.33257 23.3667 5.33313H25.0333C26.0058 5.33313 26.9384 5.71943 27.6261 6.40707C28.3137 7.0947 28.7 8.02733 28.7 8.99979V10.6665C28.7006 11.6346 29.084 12.5633 29.7667 13.2498L30.9333 14.4165C31.276 14.7572 31.5479 15.1623 31.7335 15.6085C31.9191 16.0547 32.0146 16.5332 32.0146 17.0165C32.0146 17.4997 31.9191 17.9782 31.7335 18.4244C31.5479 18.8706 31.276 19.2757 30.9333 19.6165L29.7667 20.7831C29.084 21.4696 28.7006 22.3983 28.7 23.3665V25.0331C28.7 26.0056 28.3137 26.9382 27.6261 27.6259C26.9384 28.3135 26.0058 28.6998 25.0333 28.6998H23.3667C22.3985 28.7003 21.4699 29.0838 20.7833 29.7665L19.6167 30.9331C19.2759 31.2758 18.8708 31.5477 18.4246 31.7333C17.9784 31.9188 17.4999 32.0144 17.0167 32.0144C16.5334 32.0144 16.0549 31.9188 15.6087 31.7333C15.1625 31.5477 14.7574 31.2758 14.4167 30.9331L13.25 29.7665C12.5635 29.0838 11.6348 28.7003 10.6667 28.6998H9.00001C8.02755 28.6998 7.09491 28.3135 6.40728 27.6259C5.71965 26.9382 5.33334 26.0056 5.33334 25.0331V23.3665C5.33279 22.3983 4.94934 21.4696 4.26667 20.7831L3.10001 19.6165C2.75734 19.2757 2.48541 18.8706 2.29985 18.4244C2.11429 17.9782 2.01877 17.4997 2.01877 17.0165C2.01877 16.5332 2.11429 16.0547 2.29985 15.6085C2.48541 15.1623 2.75734 14.7572 3.10001 14.4165L4.26667 13.2498C4.94934 12.5633 5.33279 11.6346 5.33334 10.6665V8.99979Z" stroke-linecap="round" stroke-linejoin="round"/></symbol>
	<symbol id="Return" xmlns="http://www.w3.org/2000/svg" viewBox="0 0 34 30" stroke="currentColor" fill="none"><path d="M32 6.66699H2M32 6.66699L27 11.667M32 6.66699L27 1.66699M7 28.3337L2 23.3337M2 23.3337L7 18.3337M2 23.3337H32" stroke-linecap="round" stroke-linejoin="round"/></symbol>			
	<symbol id="CreditCard" xmlns="http://www.w3.org/2000/svg" viewBox="0 0 34 28" stroke="currentColor" fill="none"><path d="M2 10.6663H32M8.66667 18.9997H8.68333M15.3333 18.9997H18.6667M7 2.33301H27C29.7614 2.33301 32 4.57158 32 7.33301V20.6663C32 23.4278 29.7614 25.6663 27 25.6663H7C4.23858 25.6663 2 23.4278 2 20.6663V7.33301C2 4.57158 4.23858 2.33301 7 2.33301Z" stroke-linecap="round" stroke-linejoin="round"/></symbol>		
	<symbol id="Deco" xmlns="http://www.w3.org/2000/svg" viewBox="0 0 58 20" stroke="currentColor" fill="none"><path d="M49.5359 16.9432C47.3666 16.9432 46.9948 14.8019 47.6797 12.7178C48.2221 11.0615 49.5066 9.31991 51.4201 9.31991C53.676 9.31991 53.9039 11.6038 53.247 13.6026C52.6753 15.3162 51.3908 16.9432 49.5359 16.9432ZM48.879 19.9973C52.6473 19.9973 56.0159 17.9133 57.3578 14.1449C58.7569 10.1767 57.1859 6.2085 52.0477 6.2085C47.9369 6.2085 44.7962 8.77758 43.5969 12.1755C42.2551 16.0011 43.7115 19.9973 48.879 19.9973ZM36.3747 19.9973C37.8591 19.9973 39.3729 19.6829 40.4282 19.2271C40.8 18.1998 40.828 17.2004 40.5428 16.201C39.8006 16.4862 38.7732 16.7727 37.7165 16.7727C34.861 16.7727 34.6051 14.6606 35.2048 12.8617C35.8617 10.9496 37.574 9.40786 40.287 9.40786C41.0012 9.40786 41.6861 9.52246 42.1138 9.77963C42.856 8.78025 43.2838 7.78086 43.3704 6.7535C42.7428 6.46834 41.6861 6.21117 40.3163 6.21117C35.863 6.21117 32.3505 8.80956 31.0953 12.406C29.896 15.8039 30.8101 20 36.3774 20L36.3747 19.9973ZM21.0442 11.8037C21.8143 10.0901 23.0136 9.09206 24.5846 9.09206C25.9838 9.09206 26.2116 9.86225 25.9838 10.4619C25.6413 11.2894 24.47 11.8037 21.0442 11.8037ZM22.2714 19.9973C23.7278 19.9973 25.7826 19.7122 27.4962 18.8554C27.7813 17.9133 27.7534 16.9712 27.4389 15.9998C26.3542 16.5421 24.8405 16.8566 23.4707 16.8566C21.4439 16.8566 20.3299 16.1997 20.3592 14.5447C25.8972 14.6873 28.7807 13.6879 29.7228 11.2334C30.6649 8.7496 29.0379 6.2085 25.1829 6.2085C21.0721 6.2085 18.046 9.14935 16.932 12.3181C15.7621 15.6867 16.5043 19.9973 22.2701 19.9973H22.2714ZM5.72293 19.9973C9.52059 19.9973 11.6806 18.2557 14.1924 12.9177C15.5622 9.97684 16.7335 7.09329 18.0753 4.23905L19.6743 4.7534C20.1021 4.89598 20.3313 4.6388 20.1314 4.23905L18.1899 0.270827C18.0473 -0.0143302 17.7329 -0.0436454 17.533 0.0429678L12.708 1.86984C12.3082 2.01242 12.3362 2.38419 12.7359 2.49745L14.1631 2.95451C12.9931 5.6102 11.5367 9.60641 10.3654 12.1182C9.05155 14.9165 8.39595 16.8859 6.16933 16.8859C3.9427 16.8859 3.57093 15.1443 4.51301 12.6605C5.59768 9.77697 7.42455 8.92016 9.5086 9.51979C10.0802 8.72028 10.508 7.52103 10.6785 6.43636C10.0789 6.26447 9.36469 6.2085 8.76639 6.2085C5.3978 6.2085 2.05719 7.95009 0.687373 11.6038C-1.0822 16.3143 0.554122 19.9973 5.7216 19.9973H5.72293Z" fill="currentColor"/></symbol>
	<symbol id="Discord" xmlns="http://www.w3.org/2000/svg" viewBox="0 0 127.14 96.36" stroke="currentColor" fill="none"><g id="图层_2" data-name="图层 2"><g id="Discord_Logos" data-name="Discord Logos"><g id="Discord_Logo_-_Large_-_White" data-name="Discord Logo - Large - White"><path class="cls-1" d="M107.7,8.07A105.15,105.15,0,0,0,81.47,0a72.06,72.06,0,0,0-3.36,6.83A97.68,97.68,0,0,0,49,6.83,72.37,72.37,0,0,0,45.64,0,105.89,105.89,0,0,0,19.39,8.09C2.79,32.65-1.71,56.6.54,80.21h0A105.73,105.73,0,0,0,32.71,96.36,77.7,77.7,0,0,0,39.6,85.25a68.42,68.42,0,0,1-10.85-5.18c.91-.66,1.8-1.34,2.66-2a75.57,75.57,0,0,0,64.32,0c.87.71,1.76,1.39,2.66,2a68.68,68.68,0,0,1-10.87,5.19,77,77,0,0,0,6.89,11.1A105.25,105.25,0,0,0,126.6,80.22h0C129.24,52.84,122.09,29.11,107.7,8.07ZM42.45,65.69C36.18,65.69,31,60,31,53s5-12.74,11.43-12.74S54,46,53.89,53,48.84,65.69,42.45,65.69Zm42.24,0C78.41,65.69,73.25,60,73.25,53s5-12.74,11.44-12.74S96.23,46,96.12,53,91.08,65.69,84.69,65.69Z"/></g></g></g></symbol>
	<symbol id="FilterList" xmlns="http://www.w3.org/2000/svg" viewBox="0 0 16 16" fill="none"><path d="M6.66667 12H9.33333V10.6667H6.66667V12ZM2 4V5.33333H14V4H2ZM4 8.66667H12V7.33333H4V8.66667Z" fill="currentColor"/></symbol>
	<symbol id="ChevronUp" xmlns="http://www.w3.org/2000/svg" viewBox="0 0 16 16" stroke="currentColor" fill="none"><path fill-rule="evenodd" clip-rule="evenodd" d="M7.52851 5.52827C7.78886 5.26792 8.21097 5.26792 8.47132 5.52827L12.4713 9.52827C12.7317 9.78862 12.7317 10.2107 12.4713 10.4711C12.211 10.7314 11.7889 10.7314 11.5285 10.4711L7.99992 6.94248L4.47132 10.4711C4.21097 10.7314 3.78886 10.7314 3.52851 10.4711C3.26816 10.2107 3.26816 9.78862 3.52851 9.52827L7.52851 5.52827Z" fill="black"/></symbol>
	<symbol id="Trash" width="20" height="20" viewBox="0 0 20 20" fill="none" xmlns="http://www.w3.org/2000/svg"><path fill-rule="evenodd" clip-rule="evenodd" d="M7.15482 2.15483C7.46738 1.84227 7.89131 1.66667 8.33333 1.66667H11.6667C12.1087 1.66667 12.5326 1.84227 12.8452 2.15483C13.1577 2.46739 13.3333 2.89131 13.3333 3.33334V5H15.8236C15.8295 4.99994 15.8353 4.99994 15.8412 5H16.6667C17.1269 5 17.5 5.3731 17.5 5.83334C17.5 6.29357 17.1269 6.66667 16.6667 6.66667H16.6001L15.833 15.8715C15.8231 16.5207 15.5609 17.1413 15.1011 17.6011C14.6323 18.0699 13.9964 18.3333 13.3333 18.3333H6.66667C6.00362 18.3333 5.36774 18.0699 4.8989 17.6011C4.43906 17.1413 4.17685 16.5207 4.16696 15.8715L3.39989 6.66667H3.33333C2.8731 6.66667 2.5 6.29357 2.5 5.83334C2.5 5.3731 2.8731 5 3.33333 5H4.15878C4.16467 4.99994 4.17055 4.99994 4.17641 5H6.66667V3.33334C6.66667 2.89131 6.84226 2.46739 7.15482 2.15483ZM5.07233 6.66667L5.83045 15.7641C5.83237 15.7871 5.83333 15.8102 5.83333 15.8333C5.83333 16.0543 5.92113 16.2663 6.07741 16.4226C6.23369 16.5789 6.44565 16.6667 6.66667 16.6667H13.3333C13.5543 16.6667 13.7663 16.5789 13.9226 16.4226C14.0789 16.2663 14.1667 16.0543 14.1667 15.8333C14.1667 15.8102 14.1676 15.7871 14.1695 15.7641L14.9277 6.66667H5.07233ZM11.6667 5H8.33333V3.33334H11.6667V5ZM8.33333 8.33334C8.79357 8.33334 9.16667 8.70643 9.16667 9.16667V14.1667C9.16667 14.6269 8.79357 15 8.33333 15C7.8731 15 7.5 14.6269 7.5 14.1667V9.16667C7.5 8.70643 7.8731 8.33334 8.33333 8.33334ZM11.6667 8.33334C12.1269 8.33334 12.5 8.70643 12.5 9.16667V14.1667C12.5 14.6269 12.1269 15 11.6667 15C11.2064 15 10.8333 14.6269 10.8333 14.1667V9.16667C10.8333 8.70643 11.2064 8.33334 11.6667 8.33334Z" fill="currentColor"/></symbol>
	<symbol id="WhatsApp"  xmlns="http://www.w3.org/2000/svg" viewBox="0 0 18 18" fill="none" ><path fill-rule="evenodd" clip-rule="evenodd" d="M13.333 3.94275C12.0977 2.88909 10.5203 2.32246 8.89688 2.34921C7.27345 2.37596 5.71558 2.99425 4.51564 4.08804C3.3157 5.18184 2.55617 6.67594 2.3796 8.28996C2.20302 9.90398 2.62153 11.527 3.5566 12.8543C3.72398 13.0919 3.75547 13.3996 3.63972 13.6661L2.88341 15.408L5.56246 14.9305C5.73665 14.8995 5.9162 14.9247 6.07512 15.0025C7.53336 15.7165 9.20204 15.8737 10.768 15.4448C12.334 15.0158 13.6896 14.0301 14.5804 12.6727C15.4712 11.3152 15.836 9.67933 15.6064 8.07201C15.3767 6.46468 14.5684 4.99641 13.333 3.94275ZM8.86942 0.682773C10.8987 0.649334 12.8704 1.35761 14.4146 2.67469C15.9588 3.99177 16.9692 5.8271 17.2563 7.83626C17.5433 9.84542 17.0873 11.8903 15.9738 13.5871C14.8603 15.2839 13.1658 16.516 11.2083 17.0522C9.34061 17.5638 7.35601 17.4083 5.59455 16.6177L1.64654 17.3213C1.34428 17.3752 1.03687 17.2585 0.846507 17.0176C0.656144 16.7767 0.613663 16.4506 0.735949 16.169L1.93091 13.417C0.947723 11.8367 0.519412 9.96793 0.722814 8.1087C0.943534 6.09118 1.89294 4.22355 3.39287 2.85631C4.8928 1.48907 6.84013 0.716212 8.86942 0.682773ZM6.03312 5.61685C6.26754 5.38243 6.58548 5.25073 6.917 5.25073C7.24852 5.25073 7.56646 5.38243 7.80088 5.61685C8.03531 5.85127 8.167 6.16921 8.167 6.50073V7.33407C8.167 7.66558 8.03531 7.98353 7.80088 8.21795C7.71659 8.30224 7.62149 8.37326 7.51885 8.42964C7.68255 8.89999 7.95113 9.33224 8.30998 9.69109C8.66883 10.0499 9.10107 10.3185 9.57143 10.4822C9.62781 10.3796 9.69882 10.2845 9.78312 10.2002C10.0175 9.96576 10.3355 9.83407 10.667 9.83407H11.5003C11.8319 9.83407 12.1498 9.96576 12.3842 10.2002C12.6186 10.4346 12.7503 10.7525 12.7503 11.0841C12.7503 11.4156 12.6186 11.7335 12.3842 11.9679C12.1498 12.2024 11.8319 12.3341 11.5003 12.3341H10.667C9.34092 12.3341 8.06915 11.8073 7.13147 10.8696C6.19378 9.93192 5.667 8.66015 5.667 7.33407V6.50073C5.667 6.16921 5.79869 5.85127 6.03312 5.61685Z" fill="currentColor"/></symbol>
	<symbol id="WhatsAppLogo"  xmlns="http://www.w3.org/2000/svg" viewBox="0 0 32 32" fill="none" ><path d="M24.5 7.5C22.2 5.2 19.2 4 16 4C9.5 4 4.1 9.4 4.1 15.9C4.1 18 4.6 20.1 5.7 21.9L4 28.1L10.3 26.4C12 27.4 14 27.9 16 27.9C22.6 27.9 27.9 22.5 28 16C28 12.8 26.8 9.8 24.5 7.5ZM16 25.9C14.2 25.9 12.5 25.4 10.9 24.5L10.5 24.3L6.7 25.3L7.7 21.6L7.5 21.2C6.5 19.6 6 17.8 6 15.9C6 10.4 10.5 6 15.9 6C18.6 6 21 7 22.9 8.9C24.8 10.8 25.8 13.3 25.8 15.9C26 21.4 21.5 25.9 16 25.9ZM21.5 18.4C21.2 18.3 19.7 17.5 19.5 17.4C19.2 17.3 19 17.3 18.8 17.5C18.6 17.8 18 18.5 17.9 18.7C17.8 18.9 17.6 18.9 17.3 18.8C17 18.7 16 18.3 14.9 17.3C14 16.5 13.4 15.5 13.2 15.2C13 14.9 13.2 14.7 13.3 14.6C13.4 14.5 13.6 14.3 13.7 14.1C13.8 13.9 13.9 13.8 14 13.6C14.1 13.4 14.1 13.2 14 13.1C13.9 13 13.3 11.5 13.1 10.9C12.9 10.3 12.6 10.4 12.4 10.4C12.2 10.4 12 10.4 11.8 10.4C11.6 10.4 11.3 10.5 11 10.8C10.7 11.1 10 11.8 10 13.3C10 14.8 11.1 16.2 11.2 16.4C11.3 16.6 13.3 19.6 16.3 20.9C17 21.2 17.6 21.4 18 21.5C18.7 21.7 19.4 21.7 19.9 21.6C20.5 21.5 21.7 20.9 21.9 20.2C22.1 19.5 22.1 18.9 22.1 18.8C22 18.7 21.8 18.6 21.5 18.4Z" fill="white"/></symbol>
	<symbol id="BrazilFlag"  xmlns="http://www.w3.org/2000/svg" width="22" height="15" viewBox="0 0 22 15" fill="none"><path d="M21.5448 10.9986C21.5448 12.9309 20.4093 14.4975 18.1784 14.4975H3.36637C1.13548 14.4975 0 12.9309 0 10.9986V4.00084C0 2.0685 1.13548 0.501953 3.36637 0.501953H18.1784C20.4093 0.501953 21.5448 2.0685 21.5448 4.00084V10.9986Z" fill="#128807"/>
<path d="M19.2356 7.75151L10.8231 13.337L2.41016 7.75151L10.8231 2.16602L19.2356 7.75151Z" fill="#F9CB38"/>
<path fill-rule="evenodd" clip-rule="evenodd" d="M14.1419 8.72466C13.7588 9.95468 12.56 10.8911 11.2027 11.0183C9.38921 11.1898 7.80264 10.1007 7.41685 8.41708C7.30271 7.92232 7.31727 7.40879 7.45927 6.92051C7.51212 6.86644 7.58517 6.85339 7.65789 6.84385C8.18829 6.77427 8.72447 6.75222 9.25927 6.77801C9.82987 6.80855 10.3958 6.88329 10.9458 7.03025C11.5104 7.18134 12.0571 7.37854 12.5731 7.64064C12.9615 7.83561 13.3325 8.06006 13.6823 8.31179C13.8008 8.39863 13.9217 8.48387 14.0355 8.57644C14.0863 8.61779 14.126 8.66232 14.1415 8.72466" fill="#002776"/>
<path fill-rule="evenodd" clip-rule="evenodd" d="M7.64941 6.42235C8.08401 5.50469 8.81687 4.89366 9.82981 4.60675C11.8698 4.0288 13.9627 5.30271 14.266 7.28944C14.3132 7.59639 14.3152 7.90429 14.2654 8.21187C14.2138 8.23 14.1755 8.20424 14.1401 8.17657C13.7704 7.8911 13.3759 7.63552 12.9609 7.41254C12.6413 7.24116 12.3092 7.0915 11.9671 6.96468C11.9065 6.9421 11.8305 6.93033 11.8096 6.85367C11.8315 6.81677 11.8591 6.78465 11.8921 6.75475C11.9038 6.7433 11.921 6.73216 11.9052 6.71308C11.8998 6.70704 11.8887 6.70704 11.8793 6.70799C11.854 6.71054 11.8574 6.72708 11.8584 6.74457C11.8604 6.80151 11.8254 6.83809 11.7793 6.86735C11.6975 6.88484 11.619 6.86162 11.5527 6.82822C11.3629 6.73407 11.1528 6.70195 10.9518 6.64946C10.6384 6.56899 10.3166 6.5235 9.99544 6.47611C9.73913 6.43744 9.48112 6.40963 9.22218 6.39277C8.98654 6.37719 8.74652 6.37941 8.50919 6.39468C8.25031 6.41186 7.99076 6.42903 7.73324 6.4583C7.71709 6.46052 7.7006 6.45832 7.68574 6.45195C7.67088 6.44558 7.65827 6.4353 7.64941 6.42235" fill="#002776"/>
<path fill-rule="evenodd" clip-rule="evenodd" d="M11.8124 6.83437C11.811 6.87317 11.8477 6.86808 11.8699 6.87635C12.7393 7.19588 13.5477 7.64711 14.2634 8.21229C14.2428 8.3868 14.2019 8.55863 14.1416 8.72472C13.7204 8.39455 13.2892 8.07997 12.8122 7.82296C11.3044 7.01154 9.68988 6.68996 7.96394 6.86236C7.79562 6.87858 7.6273 6.90021 7.45898 6.91961C7.50241 6.74753 7.55762 6.57863 7.64817 6.42213C8.90821 6.2615 10.1464 6.35279 11.3613 6.70809C11.5121 6.7523 11.6558 6.82355 11.8168 6.83691L11.8124 6.83341" fill="#FEFEFE"/>
<path fill-rule="evenodd" clip-rule="evenodd" d="M13.3807 8.88389C13.2794 8.87372 13.3894 8.99109 13.2871 8.98854C13.1979 8.98727 13.1932 8.91984 13.1494 8.8823C13.1831 8.84922 13.2427 8.84254 13.2615 8.79102C13.2743 8.84541 13.3285 8.85686 13.3807 8.88389Z" fill="#D9DFEA"/>
<path fill-rule="evenodd" clip-rule="evenodd" d="M9.55781 9.47233C9.46254 9.48282 9.54232 9.58079 9.46254 9.58238C9.38208 9.58397 9.34068 9.52767 9.32452 9.46947C9.3188 9.45293 9.39622 9.41603 9.43426 9.38867C9.43898 9.44624 9.50226 9.4437 9.55781 9.47233Z" fill="#E9ECF3"/>
<path fill-rule="evenodd" clip-rule="evenodd" d="M10.8192 9.29481C10.6869 9.3756 10.7936 9.19303 10.7158 9.21084C10.7411 9.17267 10.8124 9.18157 10.8171 9.12305C10.8508 9.15613 10.8794 9.1943 10.933 9.20129C10.8565 9.19143 10.9397 9.35175 10.8192 9.29481" fill="#EDEFF5"/>
<path fill-rule="evenodd" clip-rule="evenodd" d="M8.08594 7.15202C8.05429 7.20896 8.03039 7.27257 7.93445 7.2344C7.8853 7.215 7.93782 7.15138 7.87891 7.14534L7.98798 7.05469C7.99538 7.06964 8.00414 7.08395 8.01154 7.0989C8.02029 7.13675 8.10008 7.0865 8.08594 7.15202" fill="#F0F2F6"/>
<path fill-rule="evenodd" clip-rule="evenodd" d="M8.39065 8.53313C8.34049 8.54808 8.37651 8.67277 8.26879 8.61838C8.25802 8.61329 8.21089 8.63778 8.21964 8.62347C8.24792 8.5713 8.18463 8.54585 8.19439 8.50419C8.25331 8.52836 8.24994 8.42657 8.3102 8.45393C8.31457 8.45711 8.31457 8.46983 8.3176 8.4781C8.324 8.51754 8.40547 8.46824 8.39065 8.53313Z" fill="#ECEFF4"/>
<path fill-rule="evenodd" clip-rule="evenodd" d="M7.86187 8.90227C7.75853 8.9363 7.83562 8.81829 7.77637 8.81925C7.80397 8.7973 7.83494 8.75627 7.86255 8.75786C7.89554 8.75945 7.92583 8.79794 7.95613 8.81988C7.91102 8.8342 7.95849 8.94966 7.86187 8.90227" fill="#D9DFEA"/>
<path fill-rule="evenodd" clip-rule="evenodd" d="M11.8558 10.0277C11.7464 10.0748 11.8528 9.9358 11.7797 9.95393C11.7723 9.90081 11.8635 9.93294 11.8521 9.87695L11.9507 9.9517C11.9107 9.96888 11.9507 10.077 11.8558 10.0277" fill="#D8DEEA"/>
<path fill-rule="evenodd" clip-rule="evenodd" d="M12.5565 9.95183C12.4659 9.98745 12.5215 9.87231 12.4727 9.86085C12.5056 9.84082 12.5403 9.8195 12.5726 9.79883C12.5753 9.8459 12.6437 9.82873 12.6511 9.8704C12.6002 9.87326 12.6531 9.97696 12.5565 9.95183" fill="#DCE1EC"/>
<path fill-rule="evenodd" clip-rule="evenodd" d="M13.1855 9.52323C13.0824 9.57253 13.1585 9.44307 13.0996 9.44848C13.1114 9.40713 13.1791 9.42271 13.1831 9.375L13.2797 9.44339C13.2208 9.4418 13.2932 9.57826 13.1855 9.52323" fill="#DCE1EC"/>
<path fill-rule="evenodd" clip-rule="evenodd" d="M9.0159 8.93039C8.90818 8.98796 8.97853 8.85914 8.92871 8.85659C8.93376 8.8092 9.00984 8.82955 9.01321 8.7793C9.02331 8.82574 9.08861 8.81238 9.10275 8.85405C9.03846 8.84514 9.13002 8.99114 9.0159 8.93039" fill="#D4DAE7"/>
<path fill-rule="evenodd" clip-rule="evenodd" d="M9.4521 7.96414C9.39116 7.96032 9.46926 7.86967 9.39453 7.87539C9.40732 7.8245 9.46489 7.83499 9.49653 7.80859C9.51269 7.84072 9.55847 7.84804 9.56083 7.89416C9.56622 7.97845 9.48711 7.93487 9.4521 7.96414" fill="#F2F4F7"/>
<path fill-rule="evenodd" clip-rule="evenodd" d="M11.2268 8.63464C11.1336 8.68522 11.1827 8.5723 11.1396 8.55989C11.1689 8.53699 11.1972 8.51377 11.2268 8.49023C11.2289 8.53731 11.3241 8.52681 11.2972 8.56307C11.281 8.5847 11.3332 8.68363 11.2268 8.63464Z" fill="#E6E9F1"/>
<path fill-rule="evenodd" clip-rule="evenodd" d="M10.8088 8.35119C10.7024 8.36137 10.8122 8.27008 10.7432 8.27231C10.7701 8.24845 10.796 8.20774 10.8263 8.20519C10.8526 8.20265 10.8829 8.24304 10.9115 8.26531C10.8741 8.29934 10.8798 8.38713 10.8088 8.35119" fill="#EAEDF3"/>
<path fill-rule="evenodd" clip-rule="evenodd" d="M13.3919 9.09375C13.4138 9.14846 13.4569 9.15578 13.4905 9.17518C13.4562 9.21176 13.4427 9.26774 13.3714 9.26774C13.2983 9.26838 13.3478 9.21589 13.3313 9.1914C13.2906 9.13033 13.441 9.18186 13.3919 9.09375" fill="#E4E8F0"/>
<path fill-rule="evenodd" clip-rule="evenodd" d="M12.6296 10.2025C12.6041 10.2384 12.6216 10.2727 12.5536 10.274C12.4758 10.2753 12.5007 10.2215 12.4973 10.205C12.4909 10.1776 12.5354 10.1516 12.561 10.157C12.5832 10.1608 12.6263 10.1726 12.6296 10.2025Z" fill="#CED5E4"/>
<path fill-rule="evenodd" clip-rule="evenodd" d="M8.99283 9.18198C8.93728 9.18802 8.9834 9.25673 8.91304 9.2545C8.84874 9.25259 8.85817 9.21156 8.8511 9.18675C8.83999 9.15208 8.89419 9.15304 8.90631 9.12695C8.93189 9.14381 8.95782 9.16067 8.99283 9.18198" fill="#DAE0EB"/>
<path fill-rule="evenodd" clip-rule="evenodd" d="M12.4785 9.5464C12.5024 9.52954 12.5263 9.51395 12.5516 9.49805C12.5536 9.53335 12.634 9.513 12.6071 9.55816C12.596 9.5763 12.6233 9.62591 12.5536 9.62146C12.491 9.61733 12.5058 9.57598 12.4785 9.5464Z" fill="#D8DEE9"/>
<path fill-rule="evenodd" clip-rule="evenodd" d="M12.2233 9.65482C12.2112 9.71748 12.1735 9.72766 12.1321 9.73497C12.0617 9.7461 12.1146 9.69617 12.1031 9.67708C12.0735 9.62937 12.1482 9.63859 12.157 9.60742C12.1765 9.6316 12.2213 9.63096 12.2233 9.65482Z" fill="#CBD2E3"/>
<path fill-rule="evenodd" clip-rule="evenodd" d="M11.8292 7.59174C11.8056 7.60223 11.8369 7.65535 11.7864 7.64008C11.748 7.62768 11.7009 7.6105 11.7043 7.56597C11.7056 7.54879 11.7514 7.53448 11.777 7.51953C11.7814 7.55166 11.8541 7.54116 11.8292 7.59174Z" fill="#D1D8E6"/>
<path fill-rule="evenodd" clip-rule="evenodd" d="M13.7345 8.9881C13.6712 9.01164 13.6998 8.96234 13.6887 8.94803C13.6463 8.89363 13.7301 8.90159 13.7345 8.86914C13.7604 8.88536 13.8109 8.90381 13.8089 8.91781C13.8074 8.93599 13.7991 8.95307 13.7855 8.96597C13.7718 8.97886 13.7537 8.98671 13.7345 8.9881" fill="#DADFEA"/>
<path fill-rule="evenodd" clip-rule="evenodd" d="M10.479 8.50195C10.479 8.53885 10.5578 8.52422 10.5312 8.57034C10.5204 8.58911 10.5433 8.63936 10.4888 8.62887C10.4474 8.62091 10.4056 8.59801 10.4043 8.55921C10.4043 8.54108 10.4521 8.52167 10.479 8.50195Z" fill="#CAD2E2"/>
<path fill-rule="evenodd" clip-rule="evenodd" d="M11.5563 9.65306C11.5253 9.63938 11.524 9.60089 11.526 9.58244C11.5294 9.55795 11.564 9.52487 11.5937 9.53823C11.6118 9.5465 11.6633 9.54173 11.6509 9.58626C11.6394 9.62888 11.5943 9.63493 11.5563 9.65306Z" fill="#D0D7E5"/>
<path fill-rule="evenodd" clip-rule="evenodd" d="M12.8594 9.59627C12.8607 9.59595 12.8843 9.5651 12.9109 9.56446C12.9301 9.56382 12.9496 9.60136 12.9701 9.62235C12.9425 9.62967 12.9661 9.6777 12.9116 9.67706C12.8624 9.67611 12.8624 9.65511 12.8594 9.59627Z" fill="#EFF2F6"/>
<path fill-rule="evenodd" clip-rule="evenodd" d="M10.6934 8.79172C10.6843 8.82607 10.6843 8.84738 10.652 8.84675C10.619 8.84611 10.6029 8.83466 10.6035 8.80285C10.6035 8.77772 10.621 8.76023 10.6409 8.76182C10.6638 8.76341 10.6964 8.76945 10.6934 8.79172" fill="#CCD4E3"/>
<path fill-rule="evenodd" clip-rule="evenodd" d="M8.62902 8.29688C8.64518 8.31342 8.66369 8.32646 8.67076 8.34331C8.67682 8.35731 8.6674 8.37862 8.64652 8.38085C8.6233 8.38276 8.59838 8.38212 8.59098 8.35477C8.58425 8.32805 8.60882 8.3185 8.62902 8.29688Z" fill="#E0E5EE"/>
<path fill-rule="evenodd" clip-rule="evenodd" d="M8.39141 8.53289C8.38232 8.49695 8.3224 8.51977 8.31836 8.47852C8.33115 8.50977 8.43113 8.44008 8.39141 8.53289Z" fill="#7085B1"/>
<path fill-rule="evenodd" clip-rule="evenodd" d="M8.08612 7.1518C8.07871 7.11336 8.01509 7.14367 8.01172 7.09961C8.02956 7.12586 8.11978 7.06367 8.08612 7.1518Z" fill="#5C75A7"/>
<path fill-rule="evenodd" clip-rule="evenodd" d="M11.8194 6.83803C11.8258 6.81385 11.8463 6.77441 11.8382 6.76709C11.7285 6.67485 11.8749 6.65927 11.8968 6.6405C11.9368 6.60392 11.9305 6.75819 12.0362 6.66054C11.9793 6.77982 11.9032 6.81417 11.8157 6.83453L11.8194 6.83803Z" fill="#E7EAF2"/>
<path fill-rule="evenodd" clip-rule="evenodd" d="M8.57446 6.73937C8.46741 6.72951 8.56268 6.59782 8.53945 6.52148C8.5105 6.42288 8.58658 6.42415 8.66064 6.42383C8.77543 6.4232 8.8404 6.469 8.8404 6.58351C8.84006 6.69611 8.78486 6.74064 8.57446 6.73937Z" fill="#15A24A"/>
<path fill-rule="evenodd" clip-rule="evenodd" d="M12.664 7.37449C12.6404 7.44255 12.5532 7.48518 12.5384 7.56915C12.5371 7.58028 12.5034 7.57806 12.497 7.54561C12.4701 7.39357 12.4688 7.39389 12.3499 7.47532C12.3405 7.482 12.324 7.48804 12.3149 7.48518C12.2974 7.47786 12.2903 7.46132 12.3008 7.44255C12.3402 7.37003 12.3772 7.2956 12.4213 7.22531C12.4509 7.17887 12.4869 7.21767 12.5159 7.23103C12.5795 7.26061 12.6579 7.27747 12.664 7.37449" fill="#13A248"/>
<path fill-rule="evenodd" clip-rule="evenodd" d="M12.9653 7.62192C12.9034 7.64545 12.8734 7.60124 12.8337 7.58534C12.8068 7.57452 12.7815 7.56434 12.7634 7.59265C12.7435 7.62255 12.7634 7.63973 12.7906 7.65309C12.8115 7.66295 12.8337 7.67058 12.8492 7.68617C12.8765 7.7132 12.962 7.70589 12.9273 7.76346C12.9 7.80926 12.8543 7.75583 12.824 7.73897C12.7718 7.70875 12.6684 7.69221 12.6795 7.63973C12.6967 7.55544 12.7475 7.46383 12.8152 7.40594C12.8694 7.3595 12.9293 7.44729 12.9903 7.46924C13.0165 7.47846 13.0613 7.48673 13.0535 7.52585C13.0461 7.56625 13.0145 7.54271 12.9903 7.53731C12.9334 7.5249 12.8782 7.43393 12.8334 7.49691C12.8065 7.53444 12.9172 7.55003 12.9522 7.59138C12.9576 7.59742 12.9589 7.60569 12.9653 7.62192" fill="#11A147"/>
<path fill-rule="evenodd" clip-rule="evenodd" d="M13.6907 8.07127C13.7008 8.1457 13.6688 8.19627 13.5863 8.18355C13.5008 8.17019 13.4358 8.12089 13.421 8.03246C13.4197 8.02356 13.4311 8.00543 13.4405 8.00288C13.446 8.0012 13.4517 8.00067 13.4574 8.00131C13.463 8.00196 13.4685 8.00377 13.4733 8.00662C13.4782 8.00947 13.4823 8.01329 13.4854 8.01781C13.4885 8.02233 13.4906 8.02744 13.4914 8.03278C13.5021 8.09353 13.5358 8.12057 13.6035 8.12184C13.6166 8.02228 13.4264 7.9768 13.5358 7.87342C13.5907 7.82158 13.6577 7.86452 13.7055 7.90619C13.7496 7.94404 13.8034 7.98571 13.723 8.03978C13.7115 8.03405 13.696 8.02483 13.6876 8.03119C13.6705 8.04201 13.6873 8.05759 13.6907 8.07127Z" fill="#11A147"/>
<path fill-rule="evenodd" clip-rule="evenodd" d="M11.3657 7.1246C11.3256 7.10329 11.3276 7.08293 11.334 7.06066C11.3468 7.01327 11.3209 6.98846 11.2751 6.9751C11.2293 6.96111 11.194 6.96301 11.1815 7.01709C11.1771 7.04126 11.1637 7.05812 11.1357 7.04921C11.1034 7.03808 11.1196 7.01327 11.1256 6.99514C11.1384 6.95347 11.1499 6.91148 11.1701 6.87172C11.1883 6.83196 11.1755 6.75912 11.2418 6.7639C11.3121 6.76867 11.3882 6.78457 11.4417 6.8396C11.4656 6.86377 11.4754 6.90544 11.4559 6.92357C11.399 6.97892 11.4037 7.05717 11.3657 7.1246Z" fill="#0FA046"/>
<path fill-rule="evenodd" clip-rule="evenodd" d="M9.28856 6.71827C9.17982 6.75707 9.09398 6.73449 9.01016 6.73608C8.97212 6.73704 8.96875 6.71 8.96875 6.68264C8.97144 6.65243 8.97144 6.62189 8.97144 6.59167C8.97548 6.42404 9.03843 6.3811 9.21281 6.42786C9.23234 6.43295 9.25085 6.43613 9.2522 6.45681C9.2522 6.48543 9.23032 6.49052 9.20339 6.48989C9.19968 6.48925 9.19531 6.4883 9.19059 6.48893C9.13842 6.50102 9.04483 6.44535 9.04315 6.51915C9.04113 6.57577 9.14313 6.53569 9.19531 6.55477C9.20271 6.55764 9.21079 6.564 9.22224 6.57195C9.18925 6.62825 9.13438 6.59676 9.09196 6.60344C9.06671 6.60726 9.03372 6.59676 9.03002 6.63557C9.02531 6.68137 9.05897 6.67914 9.09196 6.68232C9.14818 6.68869 9.20911 6.66865 9.28856 6.71827" fill="#0B9F43"/>
<path fill-rule="evenodd" clip-rule="evenodd" d="M8.39455 6.74388C8.33598 6.73179 8.34406 6.69998 8.33396 6.67772C8.31645 6.63669 8.28178 6.63669 8.24374 6.63955C8.20031 6.64337 8.17675 6.65927 8.18045 6.70475C8.18314 6.72702 8.19257 6.76296 8.14881 6.75787C8.1111 6.75342 8.12188 6.71875 8.11986 6.69521C8.11649 6.65672 8.11245 6.61728 8.11649 6.57911C8.12188 6.53649 8.07879 6.47128 8.14376 6.45601C8.21075 6.43947 8.28817 6.42771 8.35786 6.4592C8.38816 6.47287 8.41206 6.50627 8.40095 6.53331C8.37536 6.60138 8.39556 6.6704 8.39455 6.74388" fill="#079D3F"/>
<path fill-rule="evenodd" clip-rule="evenodd" d="M7.68457 6.63552C7.69534 6.54932 7.7354 6.47935 7.83538 6.48253C7.93133 6.48539 7.98249 6.54837 7.98249 6.63902C7.98249 6.72904 7.93806 6.79106 7.83673 6.79043C7.73372 6.78979 7.69871 6.71918 7.68457 6.63552Z" fill="#15A24A"/>
<path fill-rule="evenodd" clip-rule="evenodd" d="M14.0925 8.25006C14.0831 8.33562 14.0383 8.40019 13.935 8.40878C13.8397 8.4161 13.7892 8.36457 13.7818 8.27996C13.7734 8.1944 13.8623 8.11265 13.9528 8.11328C14.0323 8.11392 14.0905 8.16831 14.0925 8.25006Z" fill="#11A147"/>
<path fill-rule="evenodd" clip-rule="evenodd" d="M12.2025 7.25489C12.2786 7.31279 12.1863 7.35096 12.1829 7.39962C12.1197 7.37195 12.0406 7.38308 11.9894 7.3306C11.9348 7.27462 11.9449 7.21132 11.9806 7.14961C12.02 7.0844 12.0806 7.05641 12.155 7.08122C12.223 7.10412 12.2738 7.14738 12.2409 7.22881C12.1887 7.23772 12.1459 7.17283 12.0725 7.21641C12.1213 7.23772 12.1799 7.20814 12.2025 7.25489" fill="#0C9F43"/>
<path fill-rule="evenodd" clip-rule="evenodd" d="M10.3715 6.60066C10.327 6.64996 10.2944 6.63087 10.2637 6.63151C10.2341 6.63151 10.2025 6.60829 10.1658 6.63724C10.1988 6.68813 10.2786 6.65537 10.3095 6.70594C10.3051 6.71326 10.3031 6.72312 10.2974 6.72821C10.253 6.76129 10.1819 6.68113 10.1543 6.74729C10.1291 6.80423 10.1954 6.78451 10.224 6.79405C10.2563 6.80614 10.2964 6.80168 10.3354 6.84303C10.2449 6.88057 10.1368 6.86307 10.0995 6.82172C10.0406 6.75652 10.082 6.64073 10.1267 6.58284C10.1796 6.51446 10.2762 6.58125 10.3715 6.60066" fill="#19A44D"/>
<path fill-rule="evenodd" clip-rule="evenodd" d="M10.9452 6.87747C10.8688 6.86983 10.7819 6.81894 10.76 6.9379C10.7594 6.94172 10.7328 6.94713 10.7247 6.94204C10.7156 6.93727 10.7106 6.91945 10.7122 6.90928C10.7321 6.83389 10.7422 6.7531 10.7775 6.68535C10.8186 6.60901 10.8883 6.67358 10.9459 6.68089C11.0145 6.68948 11.0526 6.72892 11.0452 6.79731C11.0384 6.85616 10.9913 6.87206 10.9452 6.87747" fill="#0D9F44"/>
<path fill-rule="evenodd" clip-rule="evenodd" d="M11.8556 7.05936C11.8482 7.1551 11.7984 7.22126 11.697 7.22413C11.6065 7.22731 11.5557 7.16719 11.5577 7.08194C11.5604 6.9897 11.6078 6.9229 11.7132 6.92004C11.8098 6.91686 11.8472 6.97825 11.8556 7.05936" fill="#0FA046"/>
<path fill-rule="evenodd" clip-rule="evenodd" d="M9.58634 6.71354C9.57523 6.73613 9.56614 6.76825 9.53416 6.76094C9.47861 6.74853 9.50353 6.69796 9.49006 6.66488C9.44899 6.62703 9.45976 6.67919 9.44697 6.68873C9.44226 6.71227 9.4537 6.74821 9.42004 6.75299C9.37863 6.75776 9.3884 6.72022 9.38941 6.69796C9.39277 6.65152 9.39345 6.60285 9.40691 6.55832C9.41869 6.52015 9.37594 6.44986 9.4564 6.44922C9.52743 6.4489 9.51194 6.51729 9.52103 6.55832C9.53046 6.6054 9.53551 6.62544 9.57624 6.57868C9.61832 6.56818 9.62707 6.59713 9.63683 6.62512C9.64222 6.66583 9.62303 6.69414 9.58634 6.71354" fill="#0EA044"/>
<path fill-rule="evenodd" clip-rule="evenodd" d="M13.1726 7.88229C13.1975 7.88229 13.2228 7.91346 13.247 7.88675C13.2655 7.86671 13.249 7.84698 13.2326 7.83076C13.2204 7.81836 13.2076 7.80659 13.1962 7.79323C13.1619 7.75411 13.1137 7.71657 13.1612 7.65995C13.2043 7.60811 13.2544 7.62083 13.3043 7.65359C13.3133 7.67013 13.3103 7.68604 13.3009 7.70099C13.2642 7.75538 13.3325 7.78846 13.3312 7.8349C13.3416 7.87847 13.3484 7.92237 13.2975 7.9475C13.2342 7.97931 13.1854 7.95004 13.139 7.91187C13.1339 7.88674 13.1437 7.87434 13.1726 7.88229" fill="#10A146"/>
<path fill-rule="evenodd" clip-rule="evenodd" d="M12.2032 7.25565C12.1773 7.27282 12.1251 7.21716 12.1268 7.25914C12.1302 7.33358 12.0908 7.3269 12.0541 7.30495C12.0046 7.276 12.0019 7.22638 12.0332 7.18058C12.0635 7.13573 12.1063 7.10965 12.1581 7.14623C12.1897 7.16817 12.2136 7.20125 12.2409 7.22956L12.2032 7.25565" fill="#ECF7F0"/>
<path fill-rule="evenodd" clip-rule="evenodd" d="M9.60947 6.63826C9.59962 6.61862 9.58884 6.59941 9.57715 6.58069C9.58893 6.55238 9.5997 6.52375 9.61384 6.4964C9.62663 6.47063 9.64885 6.45632 9.68016 6.46586C9.71517 6.47699 9.71248 6.50244 9.71046 6.52916C9.70305 6.60709 9.69632 6.6847 9.68992 6.76263C9.64077 6.79221 9.62832 6.76517 9.62024 6.7251C9.61418 6.69615 9.63 6.66498 9.60947 6.63826Z" fill="#17A34C"/>
<path fill-rule="evenodd" clip-rule="evenodd" d="M13.3318 7.83527C13.3015 7.80601 13.2692 7.77834 13.241 7.74716C13.208 7.71027 13.2208 7.68768 13.2699 7.68164C13.3409 7.69659 13.3844 7.72903 13.3635 7.80601C13.3537 7.81555 13.343 7.82573 13.3318 7.83527" fill="#D7EFE0"/>
<path fill-rule="evenodd" clip-rule="evenodd" d="M13.3631 7.80439C13.3305 7.76431 13.3217 7.70705 13.2695 7.68002L13.3045 7.65234C13.3611 7.6902 13.4644 7.71183 13.3631 7.80439Z" fill="#2BAB5B"/>
<path fill-rule="evenodd" clip-rule="evenodd" d="M13.6911 8.07162C13.6867 8.06908 13.681 8.0678 13.679 8.06431C13.652 8.01723 13.5628 7.97493 13.5931 7.93326C13.6312 7.883 13.6709 7.94248 13.6917 7.98542C13.7012 8.00355 13.7126 8.02136 13.7234 8.04013C13.7123 8.05063 13.7012 8.06112 13.6911 8.07162" fill="#E6F5EC"/>
<path fill-rule="evenodd" clip-rule="evenodd" d="M13.1721 7.88207C13.1613 7.89193 13.1509 7.90211 13.1384 7.91197C13.1243 7.90242 13.1048 7.89574 13.0957 7.88207C13.0785 7.85121 13.0294 7.81018 13.0863 7.78601C13.1341 7.76438 13.1341 7.82195 13.1495 7.84994C13.1559 7.86171 13.164 7.87157 13.1721 7.88207Z" fill="#29AA59"/>
<path fill-rule="evenodd" clip-rule="evenodd" d="M9.60947 6.63867C9.65862 6.6568 9.6327 6.69561 9.63337 6.72455C9.63606 6.76431 9.65088 6.77767 9.69026 6.76368C9.60812 6.83874 9.61856 6.73855 9.58691 6.71628C9.59533 6.68988 9.60173 6.66412 9.60947 6.63867" fill="#DDF1E4"/>
<path fill-rule="evenodd" clip-rule="evenodd" d="M9.44531 6.68836V6.58594C9.49091 6.59993 9.49223 6.63079 9.4876 6.6645C9.47373 6.67246 9.45919 6.68009 9.44531 6.68836Z" fill="#6FC690"/>
<path fill-rule="evenodd" clip-rule="evenodd" d="M8.60645 6.58451C8.61116 6.53807 8.58759 6.47763 8.67142 6.48272C8.73268 6.48622 8.77712 6.50944 8.78049 6.5756C8.78385 6.64685 8.73975 6.6758 8.67007 6.68057C8.58153 6.68725 8.61755 6.62141 8.60645 6.58451" fill="#F5FBF7"/>
<path fill-rule="evenodd" clip-rule="evenodd" d="M12.4894 7.28414C12.5244 7.30227 12.5779 7.30577 12.5894 7.35476C12.5951 7.3802 12.5719 7.39706 12.548 7.38974C12.5035 7.37702 12.4446 7.37638 12.4386 7.31722C12.4369 7.30005 12.4564 7.27842 12.4894 7.28414Z" fill="#EFF8F3"/>
<path fill-rule="evenodd" clip-rule="evenodd" d="M11.3973 6.89353C11.3882 6.92661 11.3637 6.93806 11.3354 6.9282C11.2973 6.91516 11.2361 6.92947 11.2354 6.86649C11.2341 6.83373 11.2576 6.82387 11.2893 6.83373C11.331 6.84645 11.3815 6.84486 11.3973 6.89353Z" fill="#DEF2E5"/>
<path fill-rule="evenodd" clip-rule="evenodd" d="M8.25236 6.50195C8.28535 6.50577 8.33753 6.48923 8.33416 6.54235C8.3308 6.58879 8.28097 6.58147 8.24529 6.58211C8.21668 6.58306 8.17561 6.59706 8.17291 6.54839C8.17089 6.4905 8.2187 6.50863 8.25236 6.50195" fill="#F3FAF5"/>
<path fill-rule="evenodd" clip-rule="evenodd" d="M7.8263 6.54492C7.88724 6.54874 7.91753 6.58309 7.91989 6.63717C7.92326 6.68551 7.89801 6.72686 7.84549 6.73132C7.7849 6.73673 7.75763 6.69315 7.75426 6.64003C7.7509 6.59104 7.7711 6.55542 7.8263 6.54492" fill="#F3FAF6"/>
<path fill-rule="evenodd" clip-rule="evenodd" d="M14.0261 8.26232C14.0174 8.31512 13.9837 8.35233 13.9187 8.35233C13.8666 8.3517 13.847 8.31575 13.8524 8.27218C13.8575 8.21301 13.8948 8.17484 13.9585 8.1758C14.0086 8.17707 14.0282 8.21111 14.0261 8.26232" fill="#F9FCFA"/>
<path fill-rule="evenodd" clip-rule="evenodd" d="M10.8662 6.72103C10.9002 6.74075 10.9685 6.72039 10.9783 6.78401C10.9813 6.80818 10.9531 6.82058 10.9305 6.81581C10.8864 6.80659 10.8248 6.82154 10.8194 6.75442C10.8184 6.73375 10.8282 6.71148 10.8662 6.72103Z" fill="#E7F5EC"/>
<path fill-rule="evenodd" clip-rule="evenodd" d="M11.789 7.06732C11.7826 7.12235 11.754 7.16084 11.6951 7.16084C11.6372 7.16147 11.6167 7.1233 11.6194 7.07305C11.6241 7.0177 11.6574 6.9808 11.7143 6.97858C11.7709 6.97667 11.789 7.01929 11.789 7.06732" fill="#F5FBF7"/></symbol>
<symbol id="Location" xmlns="http://www.w3.org/2000/svg" viewBox="0 0 33 33" fill="none"><path d="M16.0625 2.625C13.1461 2.62831 10.3502 3.7883 8.28798 5.85048C6.2258 7.91266 5.06581 10.7086 5.0625 13.625C5.0625 23.0375 15.0625 30.1463 15.4888 30.4438C15.6569 30.5615 15.8572 30.6247 16.0625 30.6247C16.2678 30.6247 16.4681 30.5615 16.6362 30.4438C17.0625 30.1463 27.0625 23.0375 27.0625 13.625C27.0592 10.7086 25.8992 7.91266 23.837 5.85048C21.7748 3.7883 18.9789 2.62831 16.0625 2.625ZM16.0625 9.625C16.8536 9.625 17.627 9.8596 18.2848 10.2991C18.9426 10.7386 19.4553 11.3634 19.758 12.0943C20.0608 12.8252 20.14 13.6294 19.9856 14.4054C19.8313 15.1813 19.4503 15.894 18.8909 16.4534C18.3315 17.0128 17.6188 17.3938 16.8429 17.5481C16.0669 17.7025 15.2627 17.6233 14.5318 17.3205C13.8009 17.0178 13.1761 16.5051 12.7366 15.8473C12.2971 15.1895 12.0625 14.4161 12.0625 13.625C12.0625 12.5641 12.4839 11.5467 13.2341 10.7966C13.9842 10.0464 15.0016 9.625 16.0625 9.625Z" fill="black"/></symbol>
<symbol id="Arrow"  xmlns="http://www.w3.org/2000/svg" viewBox="0 0 8 16" fill="none" ><path d="M1 2V14L7 8L1 2Z" fill="black" stroke="black"/></symbol>
</svg>